<svg viewBox="0 0 960 960" xmlns="http://www.w3.org/2000/svg" xmlns:xlink="http://www.w3.org/1999/xlink" id="6c9fab48-d31a-44a0-ac5d-a47afd274e0c" overflow="hidden"><style>
.MsftOfcThm_Accent4_Fill_v2 {
 fill:#FFC000; 
}
</style>
<rect x="106.926" y="445.931" width="221" height="298" class="MsftOfcThm_Accent4_Fill_v2" fill="#FFC000" transform="matrix(0.9815 -0.1913 0.1913 0.9815 -109.794 52.5803)"/><g><rect x="211.463" y="483.317" width="221" height="298" class="st1" fill="#F2F2F2"/><path d="M400.963 735.5 242.963 735.5 242.963 734.5 400.963 734.5 400.963 735.5ZM400.963 725.3 242.963 725.3 242.963 726.3 400.963 726.3 400.963 725.3ZM400.963 716.1 242.963 716.1 242.963 717.1 400.963 717.1 400.963 716.1ZM400.963 706.9 242.963 706.9 242.963 707.9 400.963 707.9 400.963 706.9ZM400.963 697.7 242.963 697.7 242.963 698.7 400.963 698.7 400.963 697.7ZM400.963 688.5 242.963 688.5 242.963 689.5 400.963 689.5 400.963 688.5ZM400.963 679.3 242.963 679.3 242.963 680.3 400.963 680.3 400.963 679.3ZM400.963 670.1 242.963 670.1 242.963 671.1 400.963 671.1 400.963 670.1ZM400.963 660.9 242.963 660.9 242.963 661.9 400.963 661.9 400.963 660.9ZM400.963 651.7 242.963 651.7 242.963 652.7 400.963 652.7 400.963 651.7ZM400.963 642.5 242.963 642.5 242.963 643.5 400.963 643.5 400.963 642.5ZM400.963 633.3 242.963 633.3 242.963 634.3 400.963 634.3 400.963 633.3ZM400.963 624.1 242.963 624.1 242.963 625.1 400.963 625.1 400.963 624.1ZM400.963 614.9 242.963 614.9 242.963 615.9 400.963 615.9 400.963 614.9ZM400.963 605.7 242.963 605.7 242.963 606.7 400.963 606.7 400.963 605.7ZM400.963 596.5 242.963 596.5 242.963 597.5 400.963 597.5 400.963 596.5ZM400.963 587.3 242.963 587.3 242.963 588.3 400.963 588.3 400.963 587.3ZM400.963 578.1 242.963 578.1 242.963 579.1 400.963 579.1 400.963 578.1ZM400.963 568.9 242.963 568.9 242.963 569.9 400.963 569.9 400.963 568.9ZM400.963 559.7 242.963 559.7 242.963 560.7 400.963 560.7 400.963 559.7ZM400.963 550.5 242.963 550.5 242.963 551.5 400.963 551.5 400.963 550.5ZM400.963 541.3 242.963 541.3 242.963 542.3 400.963 542.3 400.963 541.3ZM400.963 532.1 242.963 532.1 242.963 533.1 400.963 533.1 400.963 532.1Z" class="st2" fill="#CFCFCF"/></g><path d="M883.677 510.444C879.885 502.152 853.877 505.536 814.632 511.643 787.895 515.804 757.591 520.521 754.732 514.574 754.105 513.269 754.677 510.503 760.966 504.738 764.918 501.115 766.184 497.381 764.729 493.639 759.352 479.817 716.986 471 696.626 471L691.135 471 691.135 465 661.29 465 661.29 479.493 691.135 479.493 691.135 473 696.626 473C719.502 473 758.278 482.571 762.865 494.364 764.007 497.301 762.944 500.211 759.615 503.263 753.677 508.706 751.552 512.576 752.93 515.44 756.197 522.234 778.536 519.284 814.94 513.619 844.691 508.988 878.412 503.741 881.858 511.275 882.85 513.443 881.536 518.147 869.644 528.237 818.59 571.556 829.255 610.425 842.756 659.636 846.944 674.899 851.274 690.681 854.305 708.171 860.663 744.852 844.031 765.873 828.959 777.048 802.962 796.323 764.02 799.431 752.814 793.79 751.663 793.21 750.291 792.256 750.291 790.999L750.291 781.999 754.291 781.999 754.291 760.999 744.291 760.999 744.291 781.999 748.291 781.999 748.291 790.999C748.291 792.255 748.92 794.068 751.915 795.576 755.34 797.3 761.319 798.307 768.758 798.307 785.93 798.307 810.882 792.942 830.151 778.654 845.675 767.144 862.809 745.513 856.277 707.828 853.229 690.245 848.886 674.414 844.686 659.106 837.867 634.253 831.978 612.789 833.971 591.899 836.151 569.056 847.897 549.312 870.938 529.762 881.542 520.765 885.59 514.626 883.677 510.444Z" class="st2" fill="#CFCFCF"/><g><path d="M181.209 682 86.081 682C81.618 682 78 678.382 78 673.919L78 474.979C78 470.516 81.618 466.898 86.081 466.898L181.209 466.898C185.672 466.898 189.29 470.516 189.29 474.979L189.29 673.919C189.29 678.382 185.672 682 181.209 682Z" class="st3" fill="#505050"/><g><circle cx="96.598" cy="580.153" r="5.806" class="st4" fill="#737373"/><circle cx="115.469" cy="580.153" r="5.806" class="st4" fill="#737373"/><circle cx="134.34" cy="580.153" r="5.806" class="st4" fill="#737373"/><circle cx="153.211" cy="580.153" r="5.806" class="st4" fill="#737373"/><circle cx="172.082" cy="580.153" r="5.806" class="st4" fill="#737373"/><circle cx="96.598" cy="598.54" r="5.806" class="st2" fill="#CFCFCF"/><circle cx="115.469" cy="598.54" r="5.806" class="st4" fill="#737373"/><circle cx="134.34" cy="598.54" r="5.806" class="st4" fill="#737373"/><circle cx="153.211" cy="598.54" r="5.806" class="st4" fill="#737373"/><circle cx="172.082" cy="598.54" r="5.806" class="st2" fill="#CFCFCF"/><circle cx="96.598" cy="616.927" r="5.806" class="st2" fill="#CFCFCF"/><circle cx="115.469" cy="616.927" r="5.806" class="st4" fill="#737373"/><circle cx="134.34" cy="616.927" r="5.806" class="st4" fill="#737373"/><circle cx="153.211" cy="616.927" r="5.806" class="st4" fill="#737373"/><circle cx="172.082" cy="616.927" r="5.806" class="st2" fill="#CFCFCF"/><circle cx="96.598" cy="635.314" r="5.806" class="st2" fill="#CFCFCF"/><circle cx="115.469" cy="635.314" r="5.806" class="st4" fill="#737373"/><circle cx="134.34" cy="635.314" r="5.806" class="st4" fill="#737373"/><circle cx="153.211" cy="635.314" r="5.806" class="st4" fill="#737373"/><circle cx="172.082" cy="635.314" r="5.806" class="st2" fill="#CFCFCF"/><circle cx="96.598" cy="653.701" r="5.806" class="st2" fill="#CFCFCF"/><circle cx="115.469" cy="653.701" r="5.806" class="st4" fill="#737373"/><circle cx="134.34" cy="653.701" r="5.806" class="st2" fill="#CFCFCF"/><circle cx="153.211" cy="653.701" r="5.806" class="MsftOfcThm_Accent4_Fill_v2" fill="#FFC000"/><circle cx="172.082" cy="653.701" r="5.806" class="st2" fill="#CFCFCF"/></g><circle cx="114.358" cy="548.081" r="3.871" class="st4" fill="#737373"/><circle cx="95.487" cy="548.081" r="3.871" class="st2" fill="#CFCFCF"/><rect x="88.046" y="497.104" width="92.903" height="33.441" class="st2" fill="#CFCFCF"/><rect x="87.389" y="483.075" width="23.609" height="4.809" class="st2" fill="#CFCFCF"/></g><g><rect x="660.428" y="431" width="9.863" height="28" class="st4" fill="#737373"/><path d="M651 682 249 682C242.373 682 237 676.627 237 670L237 394C237 387.373 242.373 382 249 382L651 382C657.627 382 663 387.373 663 394L663 670C663 676.628 657.627 682 651 682Z" class="st4" fill="#737373"/><rect x="300" y="381" width="301" height="17"/><path d="M507.991 662 393.009 662C389.595 662 386.828 659.233 386.828 655.819L386.828 584.181C386.828 580.767 389.595 578 393.009 578L507.991 578C511.405 578 514.172 580.767 514.172 584.181L514.172 655.819C514.172 659.233 511.405 662 507.991 662Z" class="st3" fill="#505050"/><rect x="236.868" y="430.719" width="426.194" height="136.282" class="st5" fill="#D2D2D2"/><g><path d="M327.29 451 302 451C300.895 451 300 451.895 300 453L300 467C300 468.105 300.895 469 302 469L327.29 469C328.395 469 329.29 468.105 329.29 467L329.29 453C329.29 451.896 328.395 451 327.29 451Z" class="st6" fill="#2F2F2F"/><path d="M333.06 467 333.06 453C333.06 451.895 333.955 451 335.06 451L349.06 451C350.165 451 351.06 451.895 351.06 453L351.06 467C351.06 468.105 350.165 469 349.06 469L335.06 469C333.955 469 333.06 468.105 333.06 467Z" class="st6" fill="#2F2F2F"/><path d="M354.829 467 354.829 453C354.829 451.895 355.724 451 356.829 451L370.829 451C371.934 451 372.829 451.895 372.829 453L372.829 467C372.829 468.105 371.934 469 370.829 469L356.829 469C355.724 469 354.829 468.105 354.829 467Z" class="st6" fill="#2F2F2F"/><path d="M376.598 467 376.598 453C376.598 451.895 377.493 451 378.598 451L392.598 451C393.703 451 394.598 451.895 394.598 453L394.598 467C394.598 468.105 393.703 469 392.598 469L378.598 469C377.493 469 376.598 468.105 376.598 467Z" class="st6" fill="#2F2F2F"/><path d="M398.367 467 398.367 453C398.367 451.895 399.262 451 400.367 451L414.367 451C415.472 451 416.367 451.895 416.367 453L416.367 467C416.367 468.105 415.472 469 414.367 469L400.367 469C399.263 469 398.367 468.105 398.367 467Z" class="st6" fill="#2F2F2F"/><path d="M420.136 467 420.136 453C420.136 451.895 421.031 451 422.136 451L436.136 451C437.241 451 438.136 451.895 438.136 453L438.136 467C438.136 468.105 437.241 469 436.136 469L422.136 469C421.032 469 420.136 468.105 420.136 467Z" class="st6" fill="#2F2F2F"/><path d="M441.906 467 441.906 453C441.906 451.895 442.801 451 443.906 451L457.906 451C459.011 451 459.906 451.895 459.906 453L459.906 467C459.906 468.105 459.011 469 457.906 469L443.906 469C442.801 469 441.906 468.105 441.906 467Z" class="st6" fill="#2F2F2F"/><path d="M463.675 467 463.675 453C463.675 451.895 464.57 451 465.675 451L479.675 451C480.78 451 481.675 451.895 481.675 453L481.675 467C481.675 468.105 480.78 469 479.675 469L465.675 469C464.57 469 463.675 468.105 463.675 467Z" class="st6" fill="#2F2F2F"/><path d="M485.444 467 485.444 453C485.444 451.895 486.339 451 487.444 451L501.444 451C502.549 451 503.444 451.895 503.444 453L503.444 467C503.444 468.105 502.549 469 501.444 469L487.444 469C486.34 469 485.444 468.105 485.444 467Z" class="st6" fill="#2F2F2F"/><path d="M507.213 467 507.213 453C507.213 451.895 508.108 451 509.213 451L523.213 451C524.318 451 525.213 451.895 525.213 453L525.213 467C525.213 468.105 524.318 469 523.213 469L509.213 469C508.109 469 507.213 468.105 507.213 467Z" class="st6" fill="#2F2F2F"/><path d="M528.983 467 528.983 453C528.983 451.895 529.878 451 530.983 451L544.983 451C546.088 451 546.983 451.895 546.983 453L546.983 467C546.983 468.105 546.088 469 544.983 469L530.983 469C529.878 469 528.983 468.105 528.983 467Z" class="st6" fill="#2F2F2F"/><path d="M550.752 467 550.752 453C550.752 451.895 551.647 451 552.752 451L566.752 451C567.857 451 568.752 451.895 568.752 453L568.752 467C568.752 468.105 567.857 469 566.752 469L552.752 469C551.647 469 550.752 468.105 550.752 467Z" class="st6" fill="#2F2F2F"/><path d="M316 492 302 492C300.895 492 300 491.105 300 490L300 476C300 474.895 300.895 474 302 474L316 474C317.105 474 318 474.895 318 476L318 490C318 491.105 317.105 492 316 492Z" class="st6" fill="#2F2F2F"/><path d="M321.769 490 321.769 476C321.769 474.895 322.664 474 323.769 474L337.769 474C338.874 474 339.769 474.895 339.769 476L339.769 490C339.769 491.105 338.874 492 337.769 492L323.769 492C322.665 492 321.769 491.105 321.769 490Z" class="st6" fill="#2F2F2F"/><path d="M343.538 490 343.538 476C343.538 474.895 344.433 474 345.538 474L359.538 474C360.643 474 361.538 474.895 361.538 476L361.538 490C361.538 491.105 360.643 492 359.538 492L345.538 492C344.434 492 343.538 491.105 343.538 490Z" class="st6" fill="#2F2F2F"/><path d="M365.308 490 365.308 476C365.308 474.895 366.203 474 367.308 474L381.308 474C382.413 474 383.308 474.895 383.308 476L383.308 490C383.308 491.105 382.413 492 381.308 492L367.308 492C366.203 492 365.308 491.105 365.308 490Z" class="st6" fill="#2F2F2F"/><path d="M387.077 490 387.077 476C387.077 474.895 387.972 474 389.077 474L403.077 474C404.182 474 405.077 474.895 405.077 476L405.077 490C405.077 491.105 404.182 492 403.077 492L389.077 492C387.972 492 387.077 491.105 387.077 490Z" class="st6" fill="#2F2F2F"/><path d="M408.846 490 408.846 476C408.846 474.895 409.741 474 410.846 474L424.846 474C425.951 474 426.846 474.895 426.846 476L426.846 490C426.846 491.105 425.951 492 424.846 492L410.846 492C409.742 492 408.846 491.105 408.846 490Z" class="st6" fill="#2F2F2F"/><path d="M430.615 490 430.615 476C430.615 474.895 431.51 474 432.615 474L446.615 474C447.72 474 448.615 474.895 448.615 476L448.615 490C448.615 491.105 447.72 492 446.615 492L432.615 492C431.511 492 430.615 491.105 430.615 490Z" class="st6" fill="#2F2F2F"/><path d="M452.385 490 452.385 476C452.385 474.895 453.28 474 454.385 474L468.385 474C469.49 474 470.385 474.895 470.385 476L470.385 490C470.385 491.105 469.49 492 468.385 492L454.385 492C453.28 492 452.385 491.105 452.385 490Z" class="st6" fill="#2F2F2F"/><path d="M474.154 490 474.154 476C474.154 474.895 475.049 474 476.154 474L490.154 474C491.259 474 492.154 474.895 492.154 476L492.154 490C492.154 491.105 491.259 492 490.154 492L476.154 492C475.049 492 474.154 491.105 474.154 490Z" class="st6" fill="#2F2F2F"/><path d="M495.923 490 495.923 476C495.923 474.895 496.818 474 497.923 474L511.923 474C513.028 474 513.923 474.895 513.923 476L513.923 490C513.923 491.105 513.028 492 511.923 492L497.923 492C496.818 492 495.923 491.105 495.923 490Z" class="st6" fill="#2F2F2F"/><path d="M517.692 490 517.692 476C517.692 474.895 518.587 474 519.692 474L533.692 474C534.797 474 535.692 474.895 535.692 476L535.692 490C535.692 491.105 534.797 492 533.692 492L519.692 492C518.588 492 517.692 491.105 517.692 490Z" class="st6" fill="#2F2F2F"/><path d="M539.461 490 539.461 476C539.461 474.895 540.356 474 541.461 474L555.461 474C556.566 474 557.461 474.895 557.461 476L557.461 490C557.461 491.105 556.566 492 555.461 492L541.461 492C540.357 492 539.461 491.105 539.461 490Z" class="st6" fill="#2F2F2F"/><path d="M561.231 490 561.231 476C561.231 474.895 562.126 474 563.231 474L577.231 474C578.336 474 579.231 474.895 579.231 476L579.231 490C579.231 491.105 578.336 492 577.231 492L563.231 492C562.126 492 561.231 491.105 561.231 490Z" class="st6" fill="#2F2F2F"/><path d="M599 492 585 492C583.895 492 583 491.105 583 490L583 476C583 474.895 583.895 474 585 474L599 474C600.105 474 601 474.895 601 476L601 490C601 491.105 600.105 492 599 492Z" class="st6" fill="#2F2F2F"/><path d="M316 446 302 446C300.895 446 300 445.105 300 444L300 439C300 437.895 300.895 437 302 437L316 437C317.105 437 318 437.895 318 439L318 444C318 445.105 317.105 446 316 446Z" class="st6" fill="#2F2F2F"/><path d="M321.769 444 321.769 439C321.769 437.895 322.664 437 323.769 437L337.769 437C338.874 437 339.769 437.895 339.769 439L339.769 444C339.769 445.105 338.874 446 337.769 446L323.769 446C322.665 446 321.769 445.105 321.769 444Z" class="st6" fill="#2F2F2F"/><path d="M343.538 444 343.538 439C343.538 437.895 344.433 437 345.538 437L359.538 437C360.643 437 361.538 437.895 361.538 439L361.538 444C361.538 445.105 360.643 446 359.538 446L345.538 446C344.434 446 343.538 445.105 343.538 444Z" class="st6" fill="#2F2F2F"/><path d="M365.308 444 365.308 439C365.308 437.895 366.203 437 367.308 437L381.308 437C382.413 437 383.308 437.895 383.308 439L383.308 444C383.308 445.105 382.413 446 381.308 446L367.308 446C366.203 446 365.308 445.105 365.308 444Z" class="st6" fill="#2F2F2F"/><path d="M387.077 444 387.077 439C387.077 437.895 387.972 437 389.077 437L403.077 437C404.182 437 405.077 437.895 405.077 439L405.077 444C405.077 445.105 404.182 446 403.077 446L389.077 446C387.972 446 387.077 445.105 387.077 444Z" class="st6" fill="#2F2F2F"/><path d="M408.846 444 408.846 439C408.846 437.895 409.741 437 410.846 437L424.846 437C425.951 437 426.846 437.895 426.846 439L426.846 444C426.846 445.105 425.951 446 424.846 446L410.846 446C409.742 446 408.846 445.105 408.846 444Z" class="st6" fill="#2F2F2F"/><path d="M430.615 444 430.615 439C430.615 437.895 431.51 437 432.615 437L446.615 437C447.72 437 448.615 437.895 448.615 439L448.615 444C448.615 445.105 447.72 446 446.615 446L432.615 446C431.511 446 430.615 445.105 430.615 444Z" class="st6" fill="#2F2F2F"/><path d="M452.385 444 452.385 439C452.385 437.895 453.28 437 454.385 437L468.385 437C469.49 437 470.385 437.895 470.385 439L470.385 444C470.385 445.105 469.49 446 468.385 446L454.385 446C453.28 446 452.385 445.105 452.385 444Z" class="st6" fill="#2F2F2F"/><path d="M474.154 444 474.154 439C474.154 437.895 475.049 437 476.154 437L490.154 437C491.259 437 492.154 437.895 492.154 439L492.154 444C492.154 445.105 491.259 446 490.154 446L476.154 446C475.049 446 474.154 445.105 474.154 444Z" class="st6" fill="#2F2F2F"/><path d="M495.923 444 495.923 439C495.923 437.895 496.818 437 497.923 437L511.923 437C513.028 437 513.923 437.895 513.923 439L513.923 444C513.923 445.105 513.028 446 511.923 446L497.923 446C496.818 446 495.923 445.105 495.923 444Z" class="st6" fill="#2F2F2F"/><path d="M517.692 444 517.692 439C517.692 437.895 518.587 437 519.692 437L533.692 437C534.797 437 535.692 437.895 535.692 439L535.692 444C535.692 445.105 534.797 446 533.692 446L519.692 446C518.588 446 517.692 445.105 517.692 444Z" class="st6" fill="#2F2F2F"/><path d="M539.461 444 539.461 439C539.461 437.895 540.356 437 541.461 437L555.461 437C556.566 437 557.461 437.895 557.461 439L557.461 444C557.461 445.105 556.566 446 555.461 446L541.461 446C540.357 446 539.461 445.105 539.461 444Z" class="st6" fill="#2F2F2F"/><path d="M561.231 444 561.231 439C561.231 437.895 562.126 437 563.231 437L577.231 437C578.336 437 579.231 437.895 579.231 439L579.231 444C579.231 445.105 578.336 446 577.231 446L563.231 446C562.126 446 561.231 445.105 561.231 444Z" class="st6" fill="#2F2F2F"/><path d="M599 446 585 446C583.895 446 583 445.105 583 444L583 439C583 437.895 583.895 437 585 437L599 437C600.105 437 601 437.895 601 439L601 444C601 445.105 600.105 446 599 446Z" class="st6" fill="#2F2F2F"/><path d="M327.29 497 302 497C300.896 497 300 497.896 300 499L300 513C300 514.104 300.896 515 302 515L327.291 515C328.395 515 329.291 514.104 329.291 513L329.291 499C329.29 497.896 328.395 497 327.29 497Z" class="st6" fill="#2F2F2F"/><path d="M599.29 497 574 497C572.896 497 572 497.896 572 499L572 513C572 514.104 572.896 515 574 515L599.291 515C600.395 515 601.291 514.104 601.291 513L601.291 499C601.29 497.896 600.395 497 599.29 497Z" class="st6" fill="#2F2F2F"/><path d="M599.29 451 574 451C572.896 451 572 451.896 572 453L572 467C572 468.104 572.896 469 574 469L599.291 469C600.395 469 601.291 468.104 601.291 467L601.291 453C601.29 451.896 600.395 451 599.29 451Z" class="st6" fill="#2F2F2F"/><path d="M333.06 513 333.06 499C333.06 497.895 333.955 497 335.06 497L349.06 497C350.165 497 351.06 497.895 351.06 499L351.06 513C351.06 514.105 350.165 515 349.06 515L335.06 515C333.955 515 333.06 514.105 333.06 513Z" class="st6" fill="#2F2F2F"/><path d="M354.829 513 354.829 499C354.829 497.895 355.724 497 356.829 497L370.829 497C371.934 497 372.829 497.895 372.829 499L372.829 513C372.829 514.105 371.934 515 370.829 515L356.829 515C355.724 515 354.829 514.105 354.829 513Z" class="st6" fill="#2F2F2F"/><path d="M376.598 513 376.598 499C376.598 497.895 377.493 497 378.598 497L392.598 497C393.703 497 394.598 497.895 394.598 499L394.598 513C394.598 514.105 393.703 515 392.598 515L378.598 515C377.493 515 376.598 514.105 376.598 513Z" class="st6" fill="#2F2F2F"/><path d="M398.367 513 398.367 499C398.367 497.895 399.262 497 400.367 497L414.367 497C415.472 497 416.367 497.895 416.367 499L416.367 513C416.367 514.105 415.472 515 414.367 515L400.367 515C399.263 515 398.367 514.105 398.367 513Z" class="st6" fill="#2F2F2F"/><path d="M420.136 513 420.136 499C420.136 497.895 421.031 497 422.136 497L436.136 497C437.241 497 438.136 497.895 438.136 499L438.136 513C438.136 514.105 437.241 515 436.136 515L422.136 515C421.032 515 420.136 514.105 420.136 513Z" class="st6" fill="#2F2F2F"/><path d="M441.906 513 441.906 499C441.906 497.895 442.801 497 443.906 497L457.906 497C459.011 497 459.906 497.895 459.906 499L459.906 513C459.906 514.105 459.011 515 457.906 515L443.906 515C442.801 515 441.906 514.105 441.906 513Z" class="st6" fill="#2F2F2F"/><path d="M463.675 513 463.675 499C463.675 497.895 464.57 497 465.675 497L479.675 497C480.78 497 481.675 497.895 481.675 499L481.675 513C481.675 514.105 480.78 515 479.675 515L465.675 515C464.57 515 463.675 514.105 463.675 513Z" class="st6" fill="#2F2F2F"/><path d="M485.444 513 485.444 499C485.444 497.895 486.339 497 487.444 497L501.444 497C502.549 497 503.444 497.895 503.444 499L503.444 513C503.444 514.105 502.549 515 501.444 515L487.444 515C486.34 515 485.444 514.105 485.444 513Z" class="st6" fill="#2F2F2F"/><path d="M507.213 513 507.213 499C507.213 497.895 508.108 497 509.213 497L523.213 497C524.318 497 525.213 497.895 525.213 499L525.213 513C525.213 514.105 524.318 515 523.213 515L509.213 515C508.109 515 507.213 514.105 507.213 513Z" class="st6" fill="#2F2F2F"/><path d="M528.983 513 528.983 499C528.983 497.895 529.878 497 530.983 497L544.983 497C546.088 497 546.983 497.895 546.983 499L546.983 513C546.983 514.105 546.088 515 544.983 515L530.983 515C529.878 515 528.983 514.105 528.983 513Z" class="st6" fill="#2F2F2F"/><path d="M550.752 513 550.752 499C550.752 497.895 551.647 497 552.752 497L566.752 497C567.857 497 568.752 497.895 568.752 499L568.752 513C568.752 514.105 567.857 515 566.752 515L552.752 515C551.647 515 550.752 514.105 550.752 513Z" class="st6" fill="#2F2F2F"/><path d="M337.942 538 302 538C300.895 538 300 537.105 300 536L300 522C300 520.895 300.895 520 302 520L337.943 520C339.048 520 339.943 520.895 339.943 522L339.943 536C339.942 537.105 339.047 538 337.942 538Z" class="st6" fill="#2F2F2F"/><path d="M343.538 536 343.538 522C343.538 520.895 344.433 520 345.538 520L359.538 520C360.643 520 361.538 520.895 361.538 522L361.538 536C361.538 537.105 360.643 538 359.538 538L345.538 538C344.434 538 343.538 537.105 343.538 536Z" class="st6" fill="#2F2F2F"/><path d="M365.308 536 365.308 522C365.308 520.895 366.203 520 367.308 520L381.308 520C382.413 520 383.308 520.895 383.308 522L383.308 536C383.308 537.105 382.413 538 381.308 538L367.308 538C366.203 538 365.308 537.105 365.308 536Z" class="st6" fill="#2F2F2F"/><path d="M387.077 536 387.077 522C387.077 520.895 387.972 520 389.077 520L403.077 520C404.182 520 405.077 520.895 405.077 522L405.077 536C405.077 537.105 404.182 538 403.077 538L389.077 538C387.972 538 387.077 537.105 387.077 536Z" class="st6" fill="#2F2F2F"/><path d="M408.846 536 408.846 522C408.846 520.895 409.741 520 410.846 520L424.846 520C425.951 520 426.846 520.895 426.846 522L426.846 536C426.846 537.105 425.951 538 424.846 538L410.846 538C409.742 538 408.846 537.105 408.846 536Z" class="st6" fill="#2F2F2F"/><path d="M430.615 536 430.615 522C430.615 520.895 431.51 520 432.615 520L446.615 520C447.72 520 448.615 520.895 448.615 522L448.615 536C448.615 537.105 447.72 538 446.615 538L432.615 538C431.511 538 430.615 537.105 430.615 536Z" class="st6" fill="#2F2F2F"/><path d="M452.385 536 452.385 522C452.385 520.895 453.28 520 454.385 520L468.385 520C469.49 520 470.385 520.895 470.385 522L470.385 536C470.385 537.105 469.49 538 468.385 538L454.385 538C453.28 538 452.385 537.105 452.385 536Z" class="st6" fill="#2F2F2F"/><path d="M474.154 536 474.154 522C474.154 520.895 475.049 520 476.154 520L490.154 520C491.259 520 492.154 520.895 492.154 522L492.154 536C492.154 537.105 491.259 538 490.154 538L476.154 538C475.049 538 474.154 537.105 474.154 536Z" class="st6" fill="#2F2F2F"/><path d="M495.923 536 495.923 522C495.923 520.895 496.818 520 497.923 520L511.923 520C513.028 520 513.923 520.895 513.923 522L513.923 536C513.923 537.105 513.028 538 511.923 538L497.923 538C496.818 538 495.923 537.105 495.923 536Z" class="st6" fill="#2F2F2F"/><path d="M517.692 536 517.692 522C517.692 520.895 518.587 520 519.692 520L533.692 520C534.797 520 535.692 520.895 535.692 522L535.692 536C535.692 537.105 534.797 538 533.692 538L519.692 538C518.588 538 517.692 537.105 517.692 536Z" class="st6" fill="#2F2F2F"/><path d="M539.461 536 539.461 522C539.461 520.895 540.356 520 541.461 520L555.461 520C556.566 520 557.461 520.895 557.461 522L557.461 536C557.461 537.105 556.566 538 555.461 538L541.461 538C540.357 538 539.461 537.105 539.461 536Z" class="st6" fill="#2F2F2F"/><path d="M561.231 536 561.231 522C561.231 520.895 562.126 520 563.231 520L598.941 520C600.046 520 600.941 520.895 600.941 522L600.941 536C600.941 537.105 600.046 538 598.941 538L563.231 538C562.126 538 561.231 537.105 561.231 536Z" class="st6" fill="#2F2F2F"/><path d="M316 561 302 561C300.895 561 300 560.105 300 559L300 545C300 543.895 300.895 543 302 543L316 543C317.105 543 318 543.895 318 545L318 559C318 560.105 317.105 561 316 561Z" class="st6" fill="#2F2F2F"/><path d="M321.769 559 321.769 545C321.769 543.895 322.664 543 323.769 543L337.769 543C338.874 543 339.769 543.895 339.769 545L339.769 559C339.769 560.105 338.874 561 337.769 561L323.769 561C322.665 561 321.769 560.105 321.769 559Z" class="st6" fill="#2F2F2F"/><path d="M343.538 559 343.538 545C343.538 543.895 344.433 543 345.538 543L359.538 543C360.643 543 361.538 543.895 361.538 545L361.538 559C361.538 560.105 360.643 561 359.538 561L345.538 561C344.434 561 343.538 560.105 343.538 559Z" class="st6" fill="#2F2F2F"/><path d="M365.308 559 365.308 545C365.308 543.895 366.203 543 367.308 543L381.308 543C382.413 543 383.308 543.895 383.308 545L383.308 559C383.308 560.105 382.413 561 381.308 561L367.308 561C366.203 561 365.308 560.105 365.308 559Z" class="st6" fill="#2F2F2F"/><path d="M386.656 559 386.656 545C386.656 543.895 387.551 543 388.656 543L512 543C513.105 543 514 543.895 514 545L514 559C514 560.105 513.105 561 512 561L388.656 561C387.551 561 386.656 560.105 386.656 559Z" class="st6" fill="#2F2F2F"/><path d="M517.692 559 517.692 545C517.692 543.895 518.587 543 519.692 543L533.692 543C534.797 543 535.692 543.895 535.692 545L535.692 559C535.692 560.105 534.797 561 533.692 561L519.692 561C518.588 561 517.692 560.105 517.692 559Z" class="st6" fill="#2F2F2F"/><path d="M539.461 559 539.461 554C539.461 552.895 540.356 552 541.461 552L555.461 552C556.566 552 557.461 552.895 557.461 554L557.461 559C557.461 560.105 556.566 561 555.461 561L541.461 561C540.357 561 539.461 560.105 539.461 559Z" class="st6" fill="#2F2F2F"/><path d="M561.231 559 561.231 545C561.231 543.895 562.126 543 563.231 543L577.231 543C578.336 543 579.231 543.895 579.231 545L579.231 559C579.231 560.105 578.336 561 577.231 561L563.231 561C562.126 561 561.231 560.105 561.231 559Z" class="st6" fill="#2F2F2F"/><path d="M599 561 585 561C583.895 561 583 560.105 583 559L583 554C583 552.895 583.895 552 585 552L599 552C600.105 552 601 552.895 601 554L601 559C601 560.105 600.105 561 599 561Z" class="st6" fill="#2F2F2F"/></g><path d="M420 682 420 682C420 679.515 422.015 677.5 424.5 677.5L471.5 677.5C473.985 677.5 476 679.515 476 682L476 682" class="st6" fill="#2F2F2F"/><g><path d="M197.699 194.334 197.699 188.815C197.699 181.334 201.814 174.334 209.44 174.334L691.037 174.334C698.663 174.334 702.778 180.334 702.778 188.815L702.778 195.334 197.699 194.334Z" class="st2" fill="#CFCFCF"/><path d="M247.911 367.996 400.166 367.996 559.166 208.996 215.331 208.996Z" class="st1" fill="#F2F2F2"/><path d="M652.104 367.496 683.082 209.496 555.127 209.496 397.127 367.496Z" class="st7" fill="#E6E6E6"/><path d="M250.239 366.659 218.207 210.334 556.29 210.334 583.751 182.873 582.237 182.377 209.464 182.377C201.83 182.377 196.137 189.411 197.727 196.877L235.214 372.835C236.394 378.374 241.287 382.335 246.951 382.335L384.29 382.335 399.965 366.66 250.239 366.66Z" class="st6" fill="#2F2F2F"/><path d="M691.013 182.376 582.248 182.376 554.29 210.334 680.888 210.334 650.238 366.659 397.965 366.659 382.29 382.334 653.525 382.334C659.189 382.334 664.082 378.374 665.262 372.834L702.749 196.876C704.34 189.41 698.647 182.376 691.013 182.376Z" class="st3" fill="#505050"/><path d="M504.037 303.197 400.037 303.197C398.38 303.197 397.037 301.854 397.037 300.197 397.037 298.54 398.38 297.197 400.037 297.197L504.037 297.197C505.694 297.197 507.037 298.54 507.037 300.197 507.037 301.854 505.694 303.197 504.037 303.197Z" class="st8" fill="#FFFFFF"/></g></g><g><path d="M649.701 743.793 452.028 774.215 449.905 760.422 647.578 730 669.391 733.68Z" class="MsftOfcThm_Accent4_Fill_v2" fill="#FFC000"/><rect x="481.396" y="749.5" width="122" height="1" class="st8" fill="#FFFFFF" transform="matrix(0.9884 -0.1521 0.1521 0.9884 -107.769 91.229)"/></g><g><path d="M805.581 563C805.581 554.163 798.418 547 789.581 547L710.29 547C701.453 547 694.29 554.163 694.29 563L694.29 747.102C694.29 755.939 701.453 763.102 710.29 763.102L789.581 763.102C798.418 763.102 805.581 755.939 805.581 747.102L805.581 563Z" class="st3" fill="#505050"/><path d="M788.515 552.102 772.436 552.102C770.503 552.102 768.936 553.669 768.936 555.602L768.936 555.602C768.936 557.535 767.369 559.102 765.436 559.102L734.436 559.102C732.503 559.102 730.936 557.535 730.936 555.602L730.936 555.602C730.936 553.669 729.369 552.102 727.436 552.102L711.357 552.102C705.005 552.102 699.855 557.251 699.855 563.604L699.855 729.102 699.855 745.722C699.855 752.074 705.004 757.224 711.357 757.224L788.515 757.224C794.867 757.224 800.017 752.075 800.017 745.722L800.017 729.102 800.017 563.604C800.016 557.252 794.867 552.102 788.515 552.102Z" class="st7" fill="#E6E6E6"/><path d="M699.835 687.286 699.835 729.124 699.835 745.751C699.835 752.106 704.986 757.257 711.341 757.257L788.529 757.257C794.883 757.257 800.035 752.106 800.035 745.751L800.035 729.124 800.035 587.11C800.035 587.097 800.027 587.094 800.018 587.103L699.835 687.286Z" class="st5" fill="#D2D2D2"/><path d="M775.29 678 723.29 678C721.633 678 720.29 676.657 720.29 675 720.29 673.343 721.633 672 723.29 672L775.29 672C776.947 672 778.29 673.343 778.29 675 778.29 676.657 776.947 678 775.29 678Z" class="st8" fill="#FFFFFF"/><path d="M775.29 692 723.29 692C721.633 692 720.29 690.657 720.29 689 720.29 687.343 721.633 686 723.29 686L775.29 686C776.947 686 778.29 687.343 778.29 689 778.29 690.657 776.947 692 775.29 692Z" class="st8" fill="#FFFFFF"/></g></svg>